PathFileType	4	(X/Y/Z)	C:\Users\italobelli\Desktop\GitHub\PTbot_officialCBL\Personal_Results\SHRUG21_noisy1.trc
DataRate	CameraRate	NumFrames	NumMarkers	Units	OrigDataRate	OrigDataStartFrame	OrigNumFrames
112.250000	112.250000	17	9	m	112.250000	282	450
Frame#	Time		gu		centelbow		EpL		centpxt8		centijc7		ij		ts		aa		ai
			X1	Y1	Z1	X2	Y2	Z2	X3	Y3	Z3	X4	Y4	Z4	X5	Y5	Z5	X6	Y6	Z6	X7	Y7	Z7	X8	Y8	Z8	X9	Y9	Z9

282	2.5033	-0.099274	0.049292	0.16044	-0.13289	-0.20068	0.21894	-0.12169	-0.1922	0.24796	-0.046816	-0.15316	-0.008669	-0.046816	0.031938	-0.008669	0	0	0	-0.1366	0.056117	0.030971	-0.1305	0.084635	0.14661	-0.15921	-0.050187	0.063731
283	2.5122	-0.099217	0.049136	0.16047	-0.13295	-0.20086	0.21888	-0.12171	-0.19241	0.24789	-0.046816	-0.15316	-0.008669	-0.046816	0.031938	-0.008669	0	0	0	-0.13661	0.056083	0.031021	-0.13041	0.0845	0.14666	-0.15925	-0.050234	0.063644
284	2.5212	-0.099145	0.048874	0.16052	-0.133	-0.20115	0.2188	-0.12172	-0.19273	0.2478	-0.046816	-0.15316	-0.008669	-0.046816	0.031938	-0.008669	0	0	0	-0.13661	0.05601	0.031103	-0.13031	0.08426	0.14675	-0.15929	-0.050327	0.06354
285	2.5301	-0.099059	0.04851	0.16057	-0.13305	-0.20153	0.21871	-0.12171	-0.19314	0.2477	-0.046816	-0.15316	-0.008669	-0.046816	0.031938	-0.008669	0	0	0	-0.13662	0.0559	0.031216	-0.13018	0.083919	0.14687	-0.15934	-0.050463	0.063421
286	2.539	-0.098959	0.048048	0.16064	-0.13308	-0.20199	0.21861	-0.12169	-0.19366	0.24759	-0.046816	-0.15316	-0.008669	-0.046816	0.031938	-0.008669	0	0	0	-0.13663	0.055755	0.03136	-0.13002	0.08348	0.14703	-0.1594	-0.050642	0.063287
287	2.5479	-0.098845	0.047492	0.16071	-0.1331	-0.20254	0.21848	-0.12167	-0.19426	0.24746	-0.046816	-0.15316	-0.008669	-0.046816	0.031938	-0.008669	0	0	0	-0.13663	0.055575	0.031532	-0.12985	0.082949	0.14721	-0.15946	-0.050861	0.063138
288	2.5568	-0.098719	0.046846	0.16079	-0.13312	-0.20317	0.21835	-0.12163	-0.19496	0.24731	-0.046816	-0.15316	-0.008669	-0.046816	0.031938	-0.008669	0	0	0	-0.13664	0.055362	0.031731	-0.12966	0.082328	0.14742	-0.15952	-0.05112	0.062975
289	2.5657	-0.098581	0.046113	0.16088	-0.13312	-0.20388	0.2182	-0.12158	-0.19573	0.24715	-0.046816	-0.15316	-0.008669	-0.046816	0.031938	-0.008669	0	0	0	-0.13665	0.055117	0.031957	-0.12944	0.081622	0.14766	-0.15958	-0.051415	0.062799
290	2.5746	-0.098431	0.045299	0.16097	-0.13313	-0.20466	0.21804	-0.12152	-0.19659	0.24698	-0.046816	-0.15316	-0.008669	-0.046816	0.031938	-0.008669	0	0	0	-0.13665	0.054843	0.032208	-0.12921	0.080835	0.14793	-0.15964	-0.051746	0.062611
291	2.5835	-0.09827	0.044406	0.16108	-0.13312	-0.20551	0.21786	-0.12145	-0.19753	0.24679	-0.046816	-0.15316	-0.008669	-0.046816	0.031938	-0.008669	0	0	0	-0.13666	0.054539	0.032482	-0.12897	0.07997	0.14822	-0.15971	-0.05211	0.06241
292	2.5924	-0.098099	0.04344	0.16119	-0.13311	-0.20643	0.21767	-0.12137	-0.19853	0.24659	-0.046816	-0.15316	-0.008669	-0.046816	0.031938	-0.008669	0	0	0	-0.13667	0.054209	0.03278	-0.1287	0.079032	0.14853	-0.15979	-0.052507	0.062198
293	2.6013	-0.097918	0.042403	0.1613	-0.13309	-0.20741	0.21747	-0.12128	-0.19961	0.24638	-0.046816	-0.15316	-0.008669	-0.046816	0.031938	-0.008669	0	0	0	-0.13667	0.053853	0.033098	-0.12842	0.078024	0.14887	-0.15986	-0.052934	0.061976
294	2.6102	-0.097728	0.0413	0.16143	-0.13306	-0.20845	0.21726	-0.12119	-0.20075	0.24616	-0.046816	-0.15316	-0.008669	-0.046816	0.031938	-0.008669	0	0	0	-0.13668	0.053472	0.033437	-0.12813	0.076951	0.14923	-0.15994	-0.05339	0.061743
295	2.6192	-0.097529	0.040135	0.16156	-0.13303	-0.20954	0.21704	-0.12108	-0.20195	0.24592	-0.046816	-0.15316	-0.008669	-0.046816	0.031938	-0.008669	0	0	0	-0.13669	0.053069	0.033794	-0.12782	0.075816	0.14961	-0.16002	-0.053872	0.0615
296	2.6281	-0.097322	0.038912	0.16169	-0.13299	-0.21069	0.21681	-0.12097	-0.20321	0.24568	-0.046816	-0.15316	-0.008669	-0.046816	0.031938	-0.008669	0	0	0	-0.1367	0.052644	0.03417	-0.12749	0.074624	0.15001	-0.1601	-0.05438	0.061249
297	2.637	-0.097108	0.037634	0.16183	-0.13295	-0.21188	0.21656	-0.12086	-0.20451	0.24542	-0.046816	-0.15316	-0.008669	-0.046816	0.031938	-0.008669	0	0	0	-0.1367	0.052199	0.034561	-0.12716	0.073378	0.15042	-0.16018	-0.054912	0.06099
298	2.6459	-0.096887	0.036306	0.16197	-0.13291	-0.21312	0.21631	-0.12074	-0.20587	0.24515	-0.046816	-0.15316	-0.008669	-0.046816	0.031938	-0.008669	0	0	0	-0.13671	0.051735	0.034968	-0.12682	0.072082	0.15086	-0.16027	-0.055465	0.060722
